<?xml version="1.0" standalone="no"?><!DOCTYPE svg PUBLIC "-//W3C//DTD SVG 1.1//EN" "http://www.w3.org/Graphics/SVG/1.1/DTD/svg11.dtd"><svg t="1606548731923" class="icon" viewBox="0 0 1024 1024" version="1.1" xmlns="http://www.w3.org/2000/svg" p-id="46029" xmlns:xlink="http://www.w3.org/1999/xlink" width="32" height="32"><defs><style type="text/css"></style></defs><path d="M422.4 744.533333l21.333333 4.266667c25.6 6.4 51.2 8.533333 76.8 8.533333 164.266667 0 296.533333-121.6 296.533334-268.8s-132.266667-268.8-296.533334-268.8-298.666667 121.6-298.666666 268.8c0 68.266667 27.733333 130.133333 76.8 179.2l17.066666 17.066667v115.2l106.666667-55.466667z m6.4 57.6l-115.2 61.866667c-6.4 2.133333-10.666667 4.266667-17.066667 4.266667-21.333333 0-36.266667-17.066667-36.266666-36.266667v-123.733333c-57.6-57.6-91.733333-134.4-91.733334-219.733334 0-179.2 157.866667-324.266667 352-324.266666s352 145.066667 352 324.266666-157.866667 324.266667-352 324.266667c-32 0-61.866667-4.266667-91.733333-10.666667z m-76.8-285.866666c21.333333 0 36.266667-17.066667 36.266667-36.266667s-17.066667-36.266667-36.266667-36.266667-36.266667 17.066667-36.266667 36.266667 17.066667 36.266667 36.266667 36.266667z m166.4 0c21.333333 0 36.266667-17.066667 36.266667-36.266667s-17.066667-36.266667-36.266667-36.266667-36.266667 17.066667-36.266667 36.266667 17.066667 36.266667 36.266667 36.266667z m168.533333 0c21.333333 0 36.266667-17.066667 36.266667-36.266667s-17.066667-36.266667-36.266667-36.266667-36.266667 17.066667-36.266666 36.266667 14.933333 36.266667 36.266666 36.266667z" p-id="46030"></path></svg>