<?xml version="1.0" standalone="no"?><!DOCTYPE svg PUBLIC "-//W3C//DTD SVG 1.1//EN" "http://www.w3.org/Graphics/SVG/1.1/DTD/svg11.dtd"><svg t="1606734970319" class="icon" viewBox="0 0 1024 1024" version="1.1" xmlns="http://www.w3.org/2000/svg" p-id="5102" xmlns:xlink="http://www.w3.org/1999/xlink" width="200" height="200"><defs><style type="text/css"></style></defs><path d="M512 1024C229.1712 1024 0 794.8288 0 512S229.1712 0 512 0 1024 229.1712 1024 512 794.8288 1024 512 1024z m0-983.04C252.5184 40.96 40.96 252.5184 40.96 512S252.5184 983.04 512 983.04 983.04 771.4816 983.04 512 771.4816 40.96 512 40.96z" p-id="5103"></path><path d="M570.28608 532.48l200.54016-199.22944c9.87136-9.78944 9.87136-26.13248 0-37.56032l-1.6384-1.6384a25.92768 25.92768 0 0 0-36.16768 0L532.48 494.91968 331.93984 295.7312a25.92768 25.92768 0 0 0-36.16768 0l-1.6384 1.6384c-9.87136 9.8304-9.87136 26.13248 0 37.56032L494.67392 532.48 294.0928 731.70944c-9.87136 9.78944-9.87136 26.13248 0 37.56032l1.6384 1.6384c9.8304 9.78944 26.29632 9.78944 36.16768 0L532.48 570.04032l200.54016 199.22944c9.87136 9.78944 26.29632 9.78944 36.16768 0l1.6384-1.6384c9.87136-9.8304 9.87136-26.13248 0-37.56032L570.28608 532.48z" p-id="5104"></path></svg>