<?xml version="1.0" standalone="no"?><!DOCTYPE svg PUBLIC "-//W3C//DTD SVG 1.1//EN" "http://www.w3.org/Graphics/SVG/1.1/DTD/svg11.dtd"><svg t="1606549047387" class="icon" viewBox="0 0 1024 1024" version="1.1" xmlns="http://www.w3.org/2000/svg" p-id="47492" xmlns:xlink="http://www.w3.org/1999/xlink" width="32" height="32"><defs><style type="text/css"></style></defs><path d="M506.08 67.766c-246.393 0-446.108 198.767-446.108 443.98 0 245.217 202.93 448.238 449.32 448.238 246.397 0 442.897-203.021 442.897-448.238 0.001-245.213-199.717-443.98-446.109-443.98z m374.152 333.636c-1.256 0.892-2.287 1.788-3.6 2.708-15.3 10.919-32.641 23.274-47.182 45.716-15.578 24.554-16.2 52.057-16.718 74.141-0.654 29.888-2.643 33.844-10.131 36.635-22.437 8.323-39.558 6.175-52.059-6.312-1.774-1.895-1.01-6.341 3.512-20.695 5.499-17.408 13.018-41.221 1.737-66.073-12.223-28.589-37.14-39.455-55.297-47.367-17.289-7.528-22.652-10.758-24.751-17.613-9.638-31.053 11.354-54.413 59.223-92.163 26.492-21.324 49.119-26.122 83.293-31.161 27.385 36.358 48.681 77.496 61.973 122.184zM275.073 789.613c-15.517 0-29.729-1.385-44.731-2.902-67.419-66.983-109.926-158.492-113.845-259.869 24.585 2.924 59.546 8.858 70.632 11.869 0.843 0.219 2.585 1.46 4.631 2.92 5.714 4.122 14.372 10.329 28.01 12.275 2.619 0.385 5.803 0.604 9.511 0.604 21.262 0 87.452-9.945 110.544-32.251 8.822-8.481 12.145-18.548 13.482-27.018 0.837 1.493 1.82 3.474 2.582 4.96 4.683 9.348 12.527 24.989 31.728 32.625 18.997 7.614 39.833 0.352 51.729-5.341 2.917-1.406 7.294-3.521 7.595-3.899 7.108 2.492 9.908 5.74 18.541 16.667l2.863 3.571c1.577 1.978 2.446 7.431 3.293 12.685 2.015 12.685 5.769 36.283 30.737 47.993 11.763 5.532 29.334 4.953 50.4 2.625 6.949-0.78 13.856-1.593 20.009-2.251 7.357 3.147 14.029 10.624 16.264 18.188 0.596 2.003 0.784 3.744 0.623 5.28-5.908 1.417-16.557 2.417-23.417 3.039-18.272 1.705-35.507 3.338-48.218 11.894-22.921 15.426-41.444 29.679-53.912 60.952-6.237 15.685-5.039 29.183-4.196 39.056 0.682 7.603 0.79 10.531-0.487 13.62-8.335 20.001-15.771 27.802-30.713 32.218-5.23 1.489-9.56 0.352-17.178-1.547-7.169-1.755-16.098-3.985-26.985-4.391l-4.85-0.209c-15.274-0.611-25.569-1.061-41.986 0.263-8.362 0.655-14.651 1.708-21.098 2.82-4.144 0.741-8.361 1.471-13.725 2.039-10.05 1.076-19.193 1.515-27.833 1.515zM506.08 900.234c-74.168 0-143.219-20.957-202.277-56.69 1.797-0.169 3.265-0.086 5.086-0.273 6.701-0.708 12.038-1.622 17.268-2.518 4.874-0.842 9.581-1.683 15.954-2.18 13.94-1.104 22.383-0.669 35.179-0.162l5.013 0.219c5.277 0.216 10.157 1.417 15.789 2.82 12.611 3.093 30.061 5.747 46.563 0.842 39.972-11.765 56.418-40.433 66.302-64.146 6.635-15.937 5.416-29.694 4.542-39.725-0.675-7.477-0.779-10.592 0.466-13.739 6.128-15.34 13.317-21.975 32.018-34.686 3.6-1.489 15.551-2.6 23.473-3.359 24.73-2.302 50.317-4.686 63.388-24.205 10.753-15.879 13.479-35.387 7.702-55.003-6.886-23.331-25.132-43.85-47.836-53.575-11.333-4.776-27.963-4.122-48.057-1.903-6.624 0.734-13.296 1.521-18.957 1.601-0.382-1.813-0.738-4.032-1.005-5.744-1.691-10.682-4.024-25.306-14.814-38.646l-2.59-3.244c-10.397-13.149-21.153-26.777-44.053-34.743-18.707-6.449-38.661 0.788-50.178 6.341-1.986 0.953-4.688 2.251-6.593 3.01-0.869-1.467-1.901-3.557-2.668-5.096-4.576-9.099-12.227-24.36-30.441-32.247l-2.645-1.187c-7.679-3.496-17.23-7.812-29.155-7.812-6.565 0-13.05 1.331-18.82 3.744-24.862 9.894-25.812 34.387-26.167 43.627-0.053 0.734-0.053 1.489-0.053 2.251-13.074 6.668-50.915 15.199-70.465 15.282-1.418-0.622-2.503-1.622-3.702-2.464-4.796-3.442-12.038-8.646-22.657-11.491-14.544-3.927-55.41-10.862-83.81-13.926 20.367-195.49 186.351-347.943 388.202-347.943 104.421 0 199.037 41.052 269.07 107.495-25.085 5.913-49.322 15.588-75.046 36.293-39.915 31.481-100.23 79.039-77.662 151.852 9.973 32.168 36.381 43.652 55.663 52.083 15.871 6.909 23.139 10.736 26.624 18.832 2.59 5.665 0.24 14.041-3.867 27.1-6.18 19.566-15.515 49.13 9.481 75.856 18.508 18.533 41.929 28.305 67.736 28.305 13.998 0 28.811-2.841 44.012-8.51 44.786-16.609 45.738-59.168 46.393-87.362 0.408-17.591 0.759-34.197 7.98-45.522 4.709-7.294 10.235-12.926 16.336-18.077 2.156 16.455 3.622 33.082 3.622 50.133 0.007 214.567-174.751 388.492-390.344 388.492z m8.717-718.308c-3.275 0-6.509 0.41-9.429 1.115-48.543 11.599-54.966 56.093-59.652 88.613-1.337 9.218-2.645 18.699-4.955 27.906-1.389 5.614-4.197 12.005-7.164 18.781-8.194 18.674-23.444 53.467 7.598 79.183 10.921 9.024 23.523 13.631 37.47 13.631 20.444 0 38.632-10.024 55.512-19.346 43.191-23.741 50.233-64.225 56.481-99.964l1.246-7.103c4.499-25.065-12.057-55.521-27.639-74.033-11.019-13.116-28.579-28.783-49.468-28.783z m20.91 100.403c-5.882 33.79-9.555 50.482-29.428 61.412-9.592 5.28-21.515 11.869-27.558 11.919 1.138-4.089 3.969-10.513 5.991-15.124 3.592-8.207 7.68-17.534 10.157-27.582 2.781-10.977 4.466-22.328 6.041-33.409 3.982-27.453 6.671-37.02 13.176-40.84 9.209 7.071 22.825 28.428 22.929 36.311l-1.308 7.313z" p-id="47493"></path></svg>