<?xml version="1.0" standalone="no"?><!DOCTYPE svg PUBLIC "-//W3C//DTD SVG 1.1//EN" "http://www.w3.org/Graphics/SVG/1.1/DTD/svg11.dtd"><svg t="1606734435553" class="icon" viewBox="0 0 1024 1024" version="1.1" xmlns="http://www.w3.org/2000/svg" p-id="3655" xmlns:xlink="http://www.w3.org/1999/xlink" width="200" height="200"><defs><style type="text/css"></style></defs><path d="M1011.7 580.2l-8.9-16.5c-30.7-56.1-75-109.8-128.1-156.4l90.9-56.7c15.9-10 20.7-30.7 10.6-46.6-10-15.9-30.7-20.7-46.6-10.6l-112.2 70.2-10.6-7.1c-45.4-30.7-93.9-54.3-142.9-70.2l47.8-147.6c5.9-17.7-4.1-36.6-21.8-42.5-8.9-3-17.7-2.4-26 1.8-8.3 4.1-14.2 11.2-16.5 19.5l-49 151.1c-58.4-11.2-116.3-11.2-174.7 0l-49-151.1c-3-8.9-8.9-15.3-17.1-19.5-8.3-4.1-17.1-4.7-26-1.8-8.9 3-15.4 8.9-19.5 16.5-4.1 8.3-4.7 17.1-1.8 26l47.8 147.6c-49 15.9-96.8 39.6-142.9 70.2l-10.6 7.1-112-70.3c-7.7-4.7-16.5-6.5-25.4-4.1-8.9 1.8-16.5 7.1-21.2 14.8-10 15.9-5.3 36.6 10.6 46.6l90.9 56.7c-44.3 38.4-82.1 82.6-111 128.7-5.9 9.4-11.8 18.9-17.1 28.9l-8.3 15.3c-5.9 10.6-5.9 24.2 0 34.8l8.9 15.9c43.1 78.5 112.2 152.3 194.8 207.8 93.3 62.6 196 95.6 295.7 95.6 99.8 0 201.9-33.1 295.7-95.6 82.6-55.5 152.3-129.3 195.4-207.8l8.9-15.9c6.5-11.8 6.5-24.8 1.2-34.8z m-500 282.7c-185.9 0-356.5-134-428.6-266.2 4.1-7.7 8.9-15.4 13.6-23 74.4-116.9 236.1-242.6 415-242.6 185.9 0 356.5 134 428.6 266.2-73.2 132.2-243.2 265.6-428.6 265.6z m0-455.1c-103.9 0-188.9 84.4-188.9 188.9 0 103.9 84.4 188.9 188.9 188.9 103.9 0 188.9-84.4 188.9-188.9-0.6-103.9-85-188.9-188.9-188.9z m0 307.6c-65.5 0-118.7-53.1-118.7-118.6s53.1-118.7 118.7-118.7c65.5 0 118.6 53.1 118.6 118.7 0.1 65.4-53.7 118.6-118.6 118.6z m0 0" p-id="3656"></path></svg>