<?xml version="1.0" standalone="no"?><!DOCTYPE svg PUBLIC "-//W3C//DTD SVG 1.1//EN" "http://www.w3.org/Graphics/SVG/1.1/DTD/svg11.dtd"><svg t="1606548607719" class="icon" viewBox="0 0 1024 1024" version="1.1" xmlns="http://www.w3.org/2000/svg" p-id="37999" xmlns:xlink="http://www.w3.org/1999/xlink" width="32" height="32"><defs><style type="text/css"></style></defs><path d="M512 928.384a25.6 25.6 0 0 1-15.68-5.376c-10.368-8-254.592-197.632-392.512-364.096C51.2 495.424 25.6 432.96 25.6 368a272.768 272.768 0 0 1 272.448-272.448c83.776 0 162.688 39.104 213.952 104.064a273.152 273.152 0 0 1 213.952-104.064A272.768 272.768 0 0 1 998.4 368c0 64.896-25.6 127.36-78.208 190.912-137.92 166.464-382.208 356.096-392.512 364.096a25.408 25.408 0 0 1-15.616 5.376zM298.048 146.816A221.504 221.504 0 0 0 76.8 368.064c0 52.544 21.76 104.32 66.432 158.272C257.92 664.768 455.232 825.152 512 870.272c56.768-45.12 254.08-205.568 368.768-343.936 44.672-54.016 66.432-105.728 66.432-158.272a221.504 221.504 0 0 0-221.248-221.248 222.016 222.016 0 0 0-191.744 111.232 25.664 25.664 0 0 1-44.416 0 221.824 221.824 0 0 0-191.744-111.232z" p-id="38000"></path></svg>