<?xml version="1.0" standalone="no"?><!DOCTYPE svg PUBLIC "-//W3C//DTD SVG 1.1//EN" "http://www.w3.org/Graphics/SVG/1.1/DTD/svg11.dtd"><svg t="1606549221938" class="icon" viewBox="0 0 1024 1024" version="1.1" xmlns="http://www.w3.org/2000/svg" p-id="50189" xmlns:xlink="http://www.w3.org/1999/xlink" width="32" height="32"><defs><style type="text/css"></style></defs><path d="M631.175529 647.890824c160.918588 33.28 288.316235 139.776 380.385883 317.199058a30.72 30.72 0 0 1-14.245647 41.86353 32.527059 32.527059 0 0 1-43.068236-13.854118c-102.490353-197.571765-247.265882-294.249412-437.549176-294.249412s-335.028706 96.677647-437.549177 294.249412a32.527059 32.527059 0 0 1-43.068235 13.854118 30.72 30.72 0 0 1-14.185412-41.86353c91.738353-176.850824 218.593882-283.226353 378.789647-316.897882-129.445647-45.568-221.906824-166.038588-221.906823-307.471059 0-180.585412 150.738824-326.987294 336.715294-326.987294 185.916235 0 336.685176 146.371765 336.685177 326.987294 0 141.101176-92.039529 261.330824-221.003295 307.169883z m-115.712-42.465883c150.528 0 272.564706-118.512941 272.564706-264.704 0-146.191059-122.036706-264.704-272.564706-264.704-150.528 0-272.564706 118.512941-272.564705 264.704 0 146.191059 122.036706 264.704 272.564705 264.704z m115.440942-200.402823c7.710118-15.480471 26.895059-21.985882 42.827294-14.456471 15.962353 7.469176 22.618353 26.081882 14.908235 41.562353-36.261647 72.764235-95.352471 111.013647-173.176471 111.013647s-136.914824-38.249412-173.17647-110.983529a30.72 30.72 0 0 1 14.938353-41.622589 32.496941 32.496941 0 0 1 42.827294 14.456471c25.810824 51.832471 62.915765 75.896471 115.410823 75.896471 52.525176 0 89.630118-24.064 115.440942-75.896471z" p-id="50190"></path></svg>