<?xml version="1.0" standalone="no"?><!DOCTYPE svg PUBLIC "-//W3C//DTD SVG 1.1//EN" "http://www.w3.org/Graphics/SVG/1.1/DTD/svg11.dtd"><svg t="1606546694038" class="icon" viewBox="0 0 1024 1024" version="1.1" xmlns="http://www.w3.org/2000/svg" p-id="23177" xmlns:xlink="http://www.w3.org/1999/xlink" width="32" height="32"><defs><style type="text/css"></style></defs><path d="M625.421292 607.922811 625.421292 607.922811C644.476979 607.694597 659.995387 592.176195 659.995387 573.120502 659.995387 553.95071 644.476979 538.432302 625.421292 538.318198L625.421292 538.204088 555.246147 538.204088C555.360251 537.405348 555.132042 536.720712 555.246147 535.921971L637.516518 451.825905C650.981018 436.649815 644.134661 424.21227 630.556058 410.519557 616.863345 396.712745 594.61269 393.860096 583.544417 405.841219L512.79874 481.265234 436.347771 404.928369C426.762875 395.229363 407.821292 398.310226 394.356792 411.888829 380.778184 425.467438 377.697326 444.294912 387.282222 453.879813L465.444782 532.042368C463.961405 533.868063 463.048556 536.036076 462.478029 538.204088L398.921027 538.204088 398.921027 538.318198 398.692818 538.318198C379.408916 538.318198 363.890509 553.8366 363.890509 573.120502 363.890509 592.290299 379.408916 607.922811 398.692818 607.922811L398.921027 607.922811 398.921027 608.036915 468.525645 608.036915 468.525645 642.72512 398.921027 642.72512 398.921027 642.839224 398.692818 642.839224C379.408916 642.839224 363.890509 658.471736 363.890509 677.755638 363.890509 696.925435 379.408916 712.557947 398.692818 712.557947L398.921027 712.557947 398.921027 712.557947 468.525645 712.557947C468.525645 712.557947 468.411535 753.179653 468.411535 756.032302 468.411535 780.108652 487.923651 799.620767 512 799.620767 536.076349 799.620767 555.588465 780.108652 555.588465 756.032302 555.588465 753.065549 555.132042 712.557947 555.132042 712.557947L625.421292 712.557947C644.476979 712.443837 659.995387 696.925435 659.995387 677.755638 659.995387 658.585841 644.476979 643.067438 625.421292 642.953329L625.421292 642.839224 555.132042 642.839224 555.132042 608.151025 625.421292 607.922811 625.421292 607.922811 625.421292 607.922811 625.421292 607.922811ZM652.578499 202.048036 690.119352 155.1505 690.233457 155.03639C690.347561 154.922286 690.347561 154.922286 690.461665 154.808182L697.764449 145.679708C702.328684 139.97441 704.154378 132.671631 703.127424 125.597061 703.355638 124.113684 703.469742 122.402099 703.469742 120.576404 703.469742 101.977139 693.656632 85.203564 677.910016 75.846881 674.48684 72.651914 670.264919 70.255688 665.472471 69.228739 662.04929 68.544102 580.919977 51.2 505.039539 51.2L503.09974 51.2C430.300155 51.542318 344.948925 68.429993 341.41164 69.114629 336.505088 70.141583 332.169062 72.4237 328.631777 75.732772 312.771052 84.975355 302.957947 101.748925 302.957947 120.462295 302.957947 122.402099 303.072051 124.227794 303.30026 125.825275 302.387415 132.785736 304.21311 139.860306 308.66324 145.565599L315.395492 153.895332C315.6237 154.23765 315.966019 154.579968 316.308337 154.922286 316.650655 155.264604 316.878868 155.606922 317.221187 155.94924L358.641638 207.639224C197.752279 282.720922 76.8 461.52491 76.8 632.797901 76.8 865.459886 215.096381 973.746406 512 973.746406 808.903619 973.746406 947.2 865.345777 947.2 632.797901 947.2 457.188884 819.743683 273.478344 652.578499 202.048036L652.578499 202.048036ZM356.473626 122.173885C356.245412 121.831567 355.903094 121.489249 355.560776 121.146931L355.560776 121.032827C355.560776 120.804613 355.446671 120.576404 355.332562 120.348191 356.473626 119.891768 357.728788 119.321236 358.755743 118.6366 380.435866 114.642893 447.073731 103.346406 503.442053 103.118198L505.153644 103.118198C563.233562 103.118198 626.790559 114.528788 647.671946 118.522496 648.813005 119.207132 650.068168 119.891768 651.209231 120.348191L651.209231 120.462295C651.209231 120.690509 651.095122 120.918723 651.095122 121.146931L650.6387 121.831567C650.182277 122.402099 649.72585 122.972626 649.269427 123.543158L595.639644 190.409231 411.130363 190.409231 357.272366 123.086735C357.044152 122.858522 356.701834 122.516204 356.473626 122.173885L356.473626 122.173885ZM512 922.170532C243.280548 922.170532 128.604088 835.678239 128.604088 632.91201 128.604088 473.049605 254.462925 299.03807 409.989304 242.327424L607.734871 242.327424C608.419507 242.327424 608.990039 242.21332 609.67467 242.099215L613.440169 242.099215C769.308861 298.467543 895.395912 472.821396 895.395912 632.797901 895.395912 835.678239 780.719452 922.170532 512 922.170532L512 922.170532Z" p-id="23178"></path></svg>