<?xml version="1.0" standalone="no"?><!DOCTYPE svg PUBLIC "-//W3C//DTD SVG 1.1//EN" "http://www.w3.org/Graphics/SVG/1.1/DTD/svg11.dtd"><svg t="1606547474264" class="icon" viewBox="0 0 1024 1024" version="1.1" xmlns="http://www.w3.org/2000/svg" p-id="26572" xmlns:xlink="http://www.w3.org/1999/xlink" width="32" height="32"><defs><style type="text/css"></style></defs><path d="M511.9990625 826.8903125c-26.938125 0-53.1834375-2.44125-78.721875-6.65625L248.7809375 932.174375V745.8190625C152.579375 678.2703125 90.84875 574.709375 90.84875 458.399375c0-203.5125 188.559375-368.4928125 421.1521875-368.4928125 232.57875 0 421.1521875 164.98125 421.1521875 368.4928125-0.0009375 203.5228125-188.5753125 368.4909375-421.1540625 368.4909375z m0-684.343125c-203.5190625 0-368.506875 141.42375-368.506875 315.85125 0 107.030625 62.270625 201.4659375 157.276875 258.5803125l-1.6584375 122.094375 123.91125-74.49c28.545 6.091875 58.2346875 9.6665625 88.978125 9.6665625 203.533125 0 368.5059375-141.3984375 368.5059375-315.8503125 0-174.4275-164.9728125-315.8521875-368.506875-315.8521875z m210.5765625 368.49375c-29.0728125 0-52.6434375-23.5575-52.6434375-52.6396875 0-29.0728125 23.5715625-52.6425 52.6434375-52.6425 29.07375 0 52.6434375 23.5715625 52.6434375 52.6425 0.0009375 29.0821875-23.5715625 52.6396875-52.6434375 52.6396875z m-210.5765625 0c-29.0728125 0-52.6434375-23.5575-52.6434375-52.6396875 0-29.0728125 23.5725-52.6425 52.6434375-52.6425 29.07375 0 52.644375 23.5715625 52.644375 52.6425 0.0009375 29.0821875-23.570625 52.6396875-52.644375 52.6396875z m-210.5746875 0c-29.0728125 0-52.6434375-23.5575-52.6434375-52.6396875 0-29.0728125 23.5715625-52.6425 52.6434375-52.6425 29.0728125 0 52.6425 23.5715625 52.6425 52.6425 0 29.0821875-23.570625 52.6396875-52.6425 52.6396875z" p-id="26573"></path></svg>