<?xml version="1.0" standalone="no"?><!DOCTYPE svg PUBLIC "-//W3C//DTD SVG 1.1//EN" "http://www.w3.org/Graphics/SVG/1.1/DTD/svg11.dtd"><svg t="1606546598935" class="icon" viewBox="0 0 1024 1024" version="1.1" xmlns="http://www.w3.org/2000/svg" p-id="20457" xmlns:xlink="http://www.w3.org/1999/xlink" width="32" height="32"><defs><style type="text/css"></style></defs><path d="M588.729 872.527h-175.43c0 49.746 38.232 88.243 87.715 88.243s87.715-38.497 87.715-88.243zM501.014 62.264c-36.65 0-63.721 30.498-63.721 68.203v30.498C310.467 190.584 213.172 306.16 213.172 444.148v229.395l-86.924 89.824v44.912h749.531v-44.912l-86.924-89.824V444.148c0-137.988-97.294-253.476-224.033-283.974v-28.916c0-32.08-17.578-60.996-47.812-67.412-5.625-1.582-11.162-1.582-15.996-1.582z m0 148.359l48.603 12.041c101.338 24.873 175.518 117.95 175.518 221.484v255.059l18.369 18.457 24.697 25.664H233.914l24.697-25.664 18.37-18.457V444.148c0-103.535 73.388-197.314 175.43-221.396l48.603-12.129z" p-id="20458"></path></svg>