<?xml version="1.0" standalone="no"?><!DOCTYPE svg PUBLIC "-//W3C//DTD SVG 1.1//EN" "http://www.w3.org/Graphics/SVG/1.1/DTD/svg11.dtd"><svg t="1606548216725" class="icon" viewBox="0 0 1024 1024" version="1.1" xmlns="http://www.w3.org/2000/svg" p-id="32805" xmlns:xlink="http://www.w3.org/1999/xlink" width="32" height="32"><defs><style type="text/css"></style></defs><path d="M512.15421262 932.84691452C280.11525186 932.84691452 91.05027734 743.78193918 91.05027734 511.74297842 91.05027734 279.70401767 280.11525186 90.63904315 512.15421262 90.63904315c85.94797165 0 167.98921683 25.70214441 238.31028424 74.1249841 9.66400598 6.78536582 11.82298672 19.84205594 5.44885427 29.50606192-6.78536582 9.66400598-19.84205594 11.82298672-29.50606192 5.44885511-63.12446658-43.38521961-137.66068569-66.5171499-214.76711892-66.5171499C302.83594797 133.20179437 132.79056018 303.34999112 132.79056018 512.15421262c0 208.90703047 170.14819675 378.95241907 378.95241824 378.95241906 208.90703047 0 378.95241907-170.14819675 378.95241907-378.95241906 0-13.46792349-0.82246838-27.347082-2.15898074-40.81500549-1.23370258-11.41175254 7.19660083-21.8982269 18.50554441-23.13192947 11.82298672-1.23370258 21.8982269 7.19660083 23.13193029 18.50554357 1.64493759 14.7016269 2.57021411 29.91729611 2.57021411 45.03015719 0.51404316 232.03896076-188.55093218 421.10393528-420.58989294 421.1039361zM464.55384131 700.80795376c-5.03762009 0-10.48647519-2.15897992-14.2903927-5.86008929L285.97534116 540.01533777c-8.4303034-8.01906922-8.8415376-21.4869927-0.82246839-29.91729612 8.01906922-8.4303034 21.4869927-8.8415376 29.91729612-0.8224692l149.89490661 141.05336901 367.6434755-350.37163366c8.4303034-8.01906922 21.8982269-7.60783502 29.91729611 0.82246838 8.01906922 8.4303034 7.60783502 21.8982269-0.82246921 29.91729612L479.35827634 694.94786447c-4.21515171 3.80391751-9.35558076 5.8600893-14.80443503 5.86008929z m0 0" p-id="32806"></path></svg>