<?xml version="1.0" standalone="no"?><!DOCTYPE svg PUBLIC "-//W3C//DTD SVG 1.1//EN" "http://www.w3.org/Graphics/SVG/1.1/DTD/svg11.dtd"><svg t="1606548847726" class="icon" viewBox="0 0 1028 1024" version="1.1" xmlns="http://www.w3.org/2000/svg" p-id="46758" xmlns:xlink="http://www.w3.org/1999/xlink" width="32.125" height="32"><defs><style type="text/css"></style></defs><path d="M777.233 953.736c-3.876 0-7.756-0.921-11.315-2.79l-252.598-132.79-252.593 132.79c-8.182 4.287-18.105 3.598-25.6-1.853-7.489-5.434-11.236-14.649-9.668-23.762l48.252-281.282-204.37-199.195c-6.63-6.457-9.004-16.116-6.154-24.913 2.863-8.799 10.475-15.212 19.617-16.541l282.423-41.038 126.309-255.918c4.078-8.291 12.526-13.543 21.785-13.543 9.257 0 17.707 5.253 21.787 13.543l126.308 255.918 282.421 41.038c9.142 1.329 16.756 7.741 19.619 16.541 2.846 8.797 0.476 18.457-6.154 24.913l-204.356 199.201 48.243 281.278c1.567 9.113-2.187 18.329-9.669 23.762-4.239 3.074-9.255 4.641-14.284 4.641v0zM513.321 766.396c3.895 0 7.771 0.93 11.315 2.79l220.321 115.833-42.073-245.343c-1.344-7.881 1.264-15.924 6.995-21.513l178.234-173.744-246.329-35.789c-7.909-1.149-14.762-6.124-18.29-13.291l-110.171-223.223-110.169 223.22c-3.529 7.166-10.378 12.142-18.287 13.291l-246.335 35.789 178.249 173.744c5.729 5.589 8.339 13.632 6.998 21.513l-42.089 245.333 220.317-115.824c3.549-1.854 7.425-2.783 11.315-2.783v0zM513.321 766.396z" p-id="46759"></path></svg>