<?xml version="1.0" standalone="no"?><!DOCTYPE svg PUBLIC "-//W3C//DTD SVG 1.1//EN" "http://www.w3.org/Graphics/SVG/1.1/DTD/svg11.dtd"><svg t="1606549278174" class="icon" viewBox="0 0 1024 1024" version="1.1" xmlns="http://www.w3.org/2000/svg" p-id="54630" xmlns:xlink="http://www.w3.org/1999/xlink" width="32" height="32"><defs><style type="text/css"></style></defs><path d="M1024 256c0-44.992-30.624-83.456-74.432-93.568L533.152 66.336C526.176 64.768 519.072 64 512 64c-7.072 0-14.176 0.768-21.6 2.432l-415.968 96C30.592 172.544 0 211.008 0 256s30.624 83.456 74.4 93.568L160 369.312 160 640c0 84.928 97.216 160 352 160s352-75.072 352-160l0-270.688 85.568-19.744C993.376 339.456 1024 300.992 1024 256zM800 640c0 35.36-96 96-288 96-192 0-288-60.64-288-96l0-255.904 266.816 61.568C497.792 447.232 504.928 448 512 448c7.072 0 14.208-0.768 21.568-2.432L800 384.096 800 640zM519.2 383.2C516.8 383.712 514.4 384 512 384s-4.832-0.288-7.2-0.8l-416-96C74.272 283.84 64 270.912 64 256s10.272-27.84 24.8-31.2l416-96C507.168 128.288 509.568 128 512 128s4.832 0.288 7.2 0.8l416 96C949.696 228.16 960 241.088 960 256s-10.304 27.84-24.8 31.2L519.2 383.2z" p-id="54631"></path><path d="M928 416l0 288c0 17.696 14.304 32 32 32 17.664 0 32-14.304 32-32l0-288c0-17.696-14.336-32-32-32C942.304 384 928 398.304 928 416z" p-id="54632"></path><path d="M960 768c-35.36 0-64 92.672-64 128s28.64 64 64 64c35.328 0 64-28.672 64-64S995.328 768 960 768z" p-id="54633"></path></svg>